<?xml version="1.0" encoding="UTF-8" standalone="no"?>
<svg
   xmlns:dc="http://purl.org/dc/elements/1.1/"
   xmlns:cc="http://creativecommons.org/ns#"
   xmlns:rdf="http://www.w3.org/1999/02/22-rdf-syntax-ns#"
   xmlns:svg="http://www.w3.org/2000/svg"
   xmlns="http://www.w3.org/2000/svg"
   xmlns:sodipodi="http://sodipodi.sourceforge.net/DTD/sodipodi-0.dtd"
   xmlns:inkscape="http://www.inkscape.org/namespaces/inkscape"
   width="500"
   height="500"
   viewBox="0 0 132.29167 132.29167"
   version="1.1"
   id="svg8"
   inkscape:version="1.0.2 (e86c870879, 2021-01-15, custom)"
   sodipodi:docname="learnmode.svg">
  <defs
     id="defs2" />
  <sodipodi:namedview
     id="base"
     pagecolor="#ffffff"
     bordercolor="#666666"
     borderopacity="1.0"
     inkscape:pageopacity="0.0"
     inkscape:pageshadow="2"
     inkscape:zoom="0.35"
     inkscape:cx="400"
     inkscape:cy="560"
     inkscape:document-units="mm"
     inkscape:current-layer="layer1"
     inkscape:document-rotation="0"
     showgrid="false"
     units="px"
     inkscape:window-width="1368"
     inkscape:window-height="850"
     inkscape:window-x="-6"
     inkscape:window-y="-6"
     inkscape:window-maximized="1" />
  <metadata
     id="metadata5">
    <rdf:RDF>
      <cc:Work
         rdf:about="">
        <dc:format>image/svg+xml</dc:format>
        <dc:type
           rdf:resource="http://purl.org/dc/dcmitype/StillImage" />
        <dc:title></dc:title>
      </cc:Work>
    </rdf:RDF>
  </metadata>
  <g
     inkscape:label="Ebene 1"
     inkscape:groupmode="layer"
     id="layer1">
    <path
       style="fill:#000000;stroke-width:0.284652"
       d="M 35.648934,102.87536 C 30.120885,101.91385 26.391689,100.54707 20.989312,97.502434 17.712262,95.655582 12.998004,91.84748 10.741809,89.224668 9.9590126,88.314669 9.1849768,87.432469 9.0217268,87.264227 8.1538389,86.369806 5.9621051,82.974918 4.9650376,80.98063 2.900374,76.850978 2.0598959,73.581557 2.0598959,69.679792 c 0,-5.553339 1.3660701,-8.550043 6.4087462,-14.058659 5.3251719,-5.817204 6.0257599,-6.577025 7.9817389,-8.65652 1.104447,-1.174197 2.705619,-2.901318 3.558161,-3.838053 7.137226,-7.842088 9.273267,-9.85317 11.734781,-11.048314 1.130451,-0.548868 2.53572,-1.138683 3.122816,-1.310712 0.587097,-0.17204 1.492848,-0.440885 2.01278,-0.597443 1.306927,-0.393537 3.992049,-0.357162 4.408935,0.05971 0.269401,0.269393 0.517527,0.242088 1.139678,-0.125423 2.194073,-1.29607 6.682115,-2.253773 8.464896,-1.806326 0.668977,0.167898 0.730753,0.299184 0.651491,1.38457 -0.0778,1.065342 -0.01455,1.209506 0.567216,1.292519 0.440793,0.06294 0.88105,-0.169662 1.34716,-0.711634 0.380808,-0.442789 0.692537,-0.887428 0.692728,-0.988107 8.54e-4,-0.481756 1.039727,-0.472084 2.507653,0.02335 2.577099,0.869806 5.316972,2.543006 7.582471,4.630527 1.174165,1.081921 2.356689,1.933835 2.684319,1.933835 0.7476,0 2.597164,1.833943 2.597164,2.575227 0,0.310029 -0.148317,0.801156 -0.329577,1.091421 -0.181271,0.290255 -0.24934,0.736842 -0.151265,0.992421 0.154385,0.402316 0.773958,0.464683 4.616174,0.464683 2.886084,0 4.376335,0.09952 4.261918,0.284649 -0.105003,0.169953 -1.952814,0.28466 -4.585448,0.28466 h -4.409525 l 0.08532,1.632425 c 0.07789,1.488561 0.16594,1.682989 0.999533,2.206069 0.779778,0.489298 0.915766,0.743081 0.925115,1.726465 0.0065,0.634065 0.12708,1.274531 0.268985,1.423268 0.768643,0.805556 2.558067,9.162225 2.115622,9.880002 -0.315633,0.512052 0.254698,1.34955 0.919048,1.34955 0.380852,0 0.692451,0.128091 0.692451,0.284649 0,0.156559 0.312676,0.28466 0.69483,0.28466 0.382164,0 0.762941,0.1102 0.84619,0.244897 0.08327,0.134686 0.758391,0.328092 1.500321,0.429793 1.659644,0.227478 2.936369,0.768815 2.936369,1.245042 0,0.196612 -0.256182,0.357484 -0.569309,0.357484 -0.313116,0 -0.569298,-0.128091 -0.569298,-0.284649 0,-0.156558 -0.312676,-0.284649 -0.69484,-0.284649 -0.382154,0 -0.764749,-0.113126 -0.850193,-0.251384 -0.08542,-0.138269 -0.859553,-0.339368 -1.720225,-0.44691 -0.860683,-0.107585 -1.638493,-0.314644 -1.728488,-0.460239 -0.08994,-0.145606 -0.465607,-0.264735 -0.834722,-0.264735 -0.369114,0 -0.735722,-0.16012 -0.81469,-0.355817 -0.07897,-0.195698 -0.153686,0.09435 -0.166036,0.64449 -0.01237,0.550169 -0.288264,1.703011 -0.613108,2.561875 -0.324843,0.858865 -0.69116,1.881808 -0.814033,2.273203 -0.230007,0.732678 -0.742371,1.896977 -2.567911,5.835385 -0.580542,1.252466 -1.220696,2.693528 -1.422547,3.202342 -0.201852,0.508814 -0.448287,0.925126 -0.547642,0.925126 -0.0993,0 -0.361949,0.416302 -0.583564,0.925116 -0.221615,0.508825 -0.751247,1.693684 -1.176973,2.633043 -0.425726,0.939349 -1.091195,2.412429 -1.478825,3.27351 -5.550389,12.329526 -5.713499,12.629872 -8.203464,15.10569 -1.636007,1.626701 -2.754687,2.445456 -4.569896,3.344666 -1.321976,0.65488 -2.665671,1.19069 -2.985991,1.19069 -0.32032,0 -0.6783,0.0959 -0.795509,0.21311 -0.825834,0.82583 -7.870189,1.11546 -11.552541,0.47499 z m 8.612622,-0.83392 c 3.295014,-0.48646 3.786231,-0.6387 6.739601,-2.088804 3.540981,-1.738611 6.664249,-5.307743 7.634594,-8.724503 1.140705,-4.01658 1.035422,-6.846289 -0.428932,-11.528446 -0.868666,-2.777498 -2.704663,-6.503038 -3.841959,-7.795966 -0.273979,-0.311471 -0.498142,-0.661101 -0.498142,-0.77696 0,-0.115859 -0.16285,-0.379916 -0.361885,-0.586792 -0.199038,-0.206887 -0.657845,-0.760435 -1.019573,-1.230109 -0.361728,-0.469675 -1.159582,-1.390831 -1.773012,-2.047015 -0.613427,-0.656174 -1.115323,-1.273768 -1.115323,-1.372434 0,-0.470611 -4.236648,-3.92566 -7.19878,-5.870695 -4.594335,-3.016811 -8.889871,-4.772238 -15.288796,-6.247997 -2.241493,-0.516947 -9.40336,-0.449556 -11.386115,0.107155 -4.250385,1.19338 -6.3942514,2.37499 -8.6420747,4.763137 -2.0898332,2.220303 -3.0866791,4.178302 -3.706575,7.280428 -0.7663765,3.83517 -0.4733281,7.129056 1.0104673,11.357708 2.9581651,8.430462 10.3579084,16.195928 20.0200944,21.009586 4.012804,1.999157 6.617135,2.825097 11.386115,3.610967 3.965416,0.65346 4.893111,0.66887 8.470295,0.14075 z m -9.751233,-1.16377 c -1.687761,-0.19847 -5.83912,-1.373159 -7.685628,-2.174777 -2.479304,-1.076327 -4.413128,-2.050673 -4.507003,-2.270825 -0.05219,-0.122378 -0.21505,-0.222508 -0.361919,-0.222508 -0.328259,0 -2.638079,-1.483925 -2.769263,-1.779085 -0.05219,-0.117419 -0.220918,-0.213492 -0.374961,-0.213492 -0.154041,0 -0.798849,-0.416302 -1.432905,-0.925116 C 9.3753846,86.869421 4.8737203,78.908784 5.2657666,71.871736 5.3881923,69.674262 5.7834027,67.68559 6.3000726,66.667209 6.4363886,66.398515 6.7215543,65.8097 6.9337739,65.358724 c 1.0007759,-2.126704 4.4300301,-4.99693 7.0815431,-5.927145 2.797515,-0.981425 3.85105,-1.113045 7.97028,-0.995745 4.677852,0.133201 6.780178,0.493462 9.607034,1.646271 0.352258,0.143658 0.92868,0.366565 1.280938,0.495355 2.82528,1.032937 7.833866,4.054547 10.085922,6.084682 2.407646,2.170394 5.816275,5.743497 6.734859,7.059835 4.958592,7.105721 6.224408,13.951967 3.598627,19.463381 -0.813977,1.708509 -3.374505,4.519681 -4.966486,5.452639 -2.799061,1.640353 -4.87603,2.164073 -8.97707,2.263573 -2.113547,0.0513 -4.291142,0.0406 -4.839098,-0.0239 z m 7.400974,-0.976836 c 3.23188,-0.505791 5.937127,-1.752543 8.108154,-3.73674 1.34973,-1.233573 2.228466,-2.632387 3.243304,-5.162848 0.418508,-1.043534 0.41146,-6.564609 -0.01,-7.865509 C 51.871267,78.872001 50.857117,76.816895 48.667834,73.8447 47.223124,71.883333 44.377017,68.948244 42.338324,67.317294 41.555529,66.69105 40.786966,66.030465 40.630407,65.849302 40.11781,65.256174 37.065691,63.444889 34.697101,62.328174 29.187843,59.730742 23.4114,58.603172 18.803919,59.225801 c -1.459512,0.197236 -2.775346,0.465306 -2.924078,0.595721 -0.148731,0.130415 -0.478289,0.237118 -0.732351,0.237118 -0.254062,0 -1.244729,0.379196 -2.201483,0.842652 -2.344173,1.135531 -4.9235442,3.704464 -5.5846474,5.562043 -0.2785933,0.782791 -0.652859,1.723689 -0.8317014,2.090867 -0.4535819,0.931248 -0.4128092,6.484501 0.058978,8.033773 0.9920357,3.257619 2.3375958,6.241144 3.3391524,7.403926 0.2128964,0.247166 0.3870844,0.599422 0.3870844,0.782791 0,0.183368 0.100474,0.333407 0.223279,0.333407 0.122803,0 0.431511,0.352256 0.686015,0.782791 0.589292,0.996885 6.155336,6.618176 6.553134,6.618176 0.164311,0 0.505914,0.22523 0.759116,0.500508 1.149167,1.249346 6.776776,4.322273 9.569259,5.225247 0.626237,0.202498 1.260301,0.470127 1.409032,0.594721 0.148731,0.124595 0.566774,0.226543 0.928984,0.226543 0.36221,0 0.88099,0.127747 1.152845,0.283875 1.195165,0.68639 7.368003,1.02205 10.314802,0.560874 z m -7.97028,-0.445758 c -2.771238,-0.497442 -6.782135,-1.819785 -9.393544,-3.09693 -2.018908,-0.987375 -3.194224,-1.629498 -3.415834,-1.866207 -0.07828,-0.08359 -1.038984,-0.782651 -2.134898,-1.553425 C 14.894784,90.053549 10.630309,85.069863 8.7645308,80.98063 4.6825702,72.034168 7.8060833,63.434076 16.093751,60.800807 c 4.311063,-1.369776 8.326231,-1.197253 14.289105,0.613957 3.151378,0.95723 9.236521,4.139292 9.246245,4.835079 0.0028,0.195697 0.120263,0.355817 0.261172,0.355817 0.533486,0 4.921053,3.789714 6.284813,5.428433 2.898718,3.483172 4.940794,7.037404 5.671724,9.871653 0.171594,0.665383 0.440084,1.704991 0.596643,2.310255 0.951304,3.677751 -0.538794,8.472302 -3.577509,11.511017 -1.229401,1.229399 -3.584141,2.581381 -5.816035,3.339298 -0.999072,0.339271 -7.773807,0.628406 -9.108892,0.38876 z m 7.056619,-1.678945 c 0.82824,-0.09123 1.85299,-0.304789 2.277222,-0.474462 2.167484,-0.866901 3.9248,-1.923754 4.982994,-2.996778 l 1.176544,-1.193036 -0.08705,-3.646066 c -0.04787,-2.005337 -0.139929,-3.699967 -0.204563,-3.765842 -0.06463,-0.06584 -0.767225,0.03023 -1.561318,0.213492 -0.794093,0.183294 -2.42676,0.335505 -3.628148,0.338238 l -2.184344,0.0054 -1.112939,1.916439 c -2.441066,4.203402 -2.796013,4.653453 -4.554095,5.77418 -0.953667,0.607943 -2.029857,1.567755 -2.391531,2.132922 -0.628926,0.982792 -0.709577,1.019188 -1.850244,0.835207 -1.782968,-0.287576 -2.130687,-0.736841 -1.535816,-1.984293 0.459559,-0.963707 0.455986,-1.028279 -0.08693,-1.571198 -0.710382,-0.710375 -0.709355,-0.736411 0.12307,-3.118995 0.456979,-1.307969 1.176433,-2.558208 2.134897,-3.709908 0.795101,-0.955412 1.445638,-1.907069 1.445638,-2.114784 0,-0.207715 -0.416305,-0.545178 -0.925122,-0.749913 -1.107476,-0.445618 -4.829585,-2.659186 -5.874277,-3.493489 -0.409146,-0.326747 -1.911087,-1.762366 -3.337647,-3.19026 l -2.593745,-2.596174 -3.47852,4.649225 c -1.913186,2.557077 -3.564064,4.647256 -3.668618,4.644867 -0.746413,-0.01711 -2.704828,-3.038199 -3.850597,-5.939979 L 9.7198956,76.493353 10.487166,75.333928 c 0.421998,-0.63768 1.068235,-1.484 1.436081,-1.880699 0.87335,-0.941878 0.844302,-1.285107 -0.113984,-1.34684 -0.430537,-0.02776 -1.1991,-0.138344 -1.707917,-0.2458 C 9.2243197,71.67536 9.1747798,71.596586 9.1484032,70.345412 l -0.027822,-1.319793 -0.4419942,1.936364 c -0.5206517,2.280971 -0.2192837,4.680296 1.0081712,8.026479 0.6395044,1.743367 2.4067974,5.14543 2.8834774,5.550736 0.09206,0.07832 0.54743,0.651505 1.011921,1.273843 1.357871,1.8193 4.577222,4.831194 6.785392,6.348137 3.086637,2.120421 4.031484,2.597411 9.161358,4.624942 1.230424,0.486308 3.348144,0.923362 5.466072,1.128076 2.183655,0.211061 3.010597,0.192104 6.002666,-0.137656 z m -8.421959,-2.706986 c 0.45822,-0.805266 0.457739,-0.852162 -0.0087,-0.852162 -0.287113,0 -0.628525,0.357301 -0.815995,0.853958 -0.438046,1.160523 0.164106,1.159211 0.824751,-0.0022 z m 3.97869,-2.466491 c 0.263147,-0.0823 0.540055,-0.310222 0.615348,-0.506436 0.191742,-0.49967 -1.582319,0.122701 -2.362601,0.828848 -0.91317,0.826406 -0.679727,1.128828 0.343678,0.44522 0.508817,-0.339873 1.140425,-0.685308 1.403575,-0.767632 z m -4.096078,-0.378238 c 0.09883,-0.848719 1.507172,-3.700483 1.827485,-3.700483 0.123503,0 0.224549,-0.192148 0.224549,-0.426985 0,-0.478615 -0.724485,-0.582112 -0.996285,-0.142324 -0.09676,0.156558 -0.415251,0.284649 -0.707761,0.284649 -0.95318,0 -2.482876,3.973126 -1.794665,4.661339 0.451212,0.451213 1.365144,0.02399 1.446677,-0.676196 z m 3.66876,-1.77973 c 1.411622,-0.513451 1.959786,-0.903502 2.775365,-1.974847 0.558973,-0.734259 1.016313,-1.393047 1.016313,-1.463967 0,-0.18367 -0.833572,-0.508266 -1.992569,-0.775895 -0.547957,-0.126542 -1.504278,-0.359421 -2.125159,-0.517529 -1.177194,-0.299754 -1.638636,-0.127553 -2.131598,0.795497 -0.19316,0.361681 -0.06443,0.46322 0.653572,0.515495 2.608305,0.189899 3.208977,1.465668 1.183882,2.514452 -0.626102,0.324252 -1.179891,0.80518 -1.230648,1.068731 -0.113795,0.590902 -0.252253,0.603016 1.850842,-0.161937 z m 15.055956,-2.134245 c 0.180686,-1.383451 0.15152,-1.494425 -0.392767,-1.494425 -0.538863,0 -0.583675,0.153782 -0.536765,1.842022 0.03991,1.436426 0.126394,1.765486 0.392767,1.494425 0.187871,-0.191179 0.429413,-1.020092 0.536765,-1.842022 z m -10.180462,-3.558159 -0.08753,-1.209776 -2.532935,-0.645695 c -1.393114,-0.355128 -2.560988,-0.61131 -2.595276,-0.569298 -0.03429,0.04207 -0.149204,0.556829 -0.255368,1.144041 -0.219704,1.215208 -0.183596,1.240824 2.821704,2.002604 2.712764,0.687621 2.750639,0.677303 2.649407,-0.721876 z m 10.302299,0.339012 c 0,-0.322358 -0.128094,-0.506942 -0.284654,-0.41018 -0.156559,0.09672 -0.284652,0.360508 -0.284652,0.586103 0,0.225607 0.128093,0.41018 0.284652,0.41018 0.15656,0 0.284654,-0.263745 0.284654,-0.586103 z M 47.144349,84.80091 c 2.863962,-0.750902 3.1808,-0.895411 3.514769,-1.603086 0.404856,-0.857885 0.138856,-1.497319 -0.908307,-2.183444 -0.613515,-0.401993 -0.723192,-0.687868 -0.723192,-1.885035 0,-2.08906 -1.630153,-4.483855 -6.070593,-8.918114 -0.757774,-0.756712 -1.41508,-1.333133 -1.460681,-1.280932 -0.107285,0.122809 0.305993,9.799732 0.572388,13.402432 l 0.205218,2.775368 h 1.849381 c 1.017158,0 2.376618,-0.138237 3.021017,-0.307189 z m -12.76734,-2.468179 c -0.0655,-0.430535 -0.259624,-2.896348 -0.431395,-5.479569 -0.171774,-2.58322 -0.368716,-5.401289 -0.43765,-6.262359 -0.06893,-0.861081 -0.210467,-2.814507 -0.314514,-4.34096 -0.104046,-1.526453 -0.251932,-2.775368 -0.328631,-2.775368 -0.07671,0 -0.436239,0.320238 -0.798975,0.711634 -0.362736,0.391395 -0.947442,0.711633 -1.299347,0.711633 -0.497645,0 -0.563919,0.07596 -0.298245,0.341584 0.593157,0.593161 0.420028,2.811732 -0.27734,3.554049 -1.715324,1.825874 -6.212745,-0.694958 -6.212745,-3.482279 0,-0.91015 1.486761,-2.40592 2.391428,-2.40592 0.58796,0 0.739754,-0.138086 0.739754,-0.672946 0,-0.58478 -0.17302,-0.696658 -1.320668,-0.853959 -0.726367,-0.09952 -2.135398,-0.181012 -3.131181,-0.181012 -1.550619,0 -1.810515,0.07316 -1.810515,0.51003 0,0.280529 -0.576421,1.075756 -1.280937,1.767186 -1.375179,1.349636 -1.572539,1.902851 -0.782796,2.194235 0.273978,0.10113 0.56219,0.269426 0.640469,0.374095 0.07828,0.104681 0.523629,0.370503 0.989665,0.590741 0.819228,0.387135 0.858694,0.497087 1.189597,3.314306 0.188241,1.602645 0.423787,3.170776 0.523436,3.484732 0.278273,0.876766 4.629625,5.165451 6.572079,6.477443 1.713359,1.157253 5.192657,3.137533 5.591218,3.18231 0.113506,0.0128 0.152789,-0.329071 0.08729,-0.759606 z m 6.57716,-2.988861 c -0.101087,-1.76129 -0.266031,-4.77327 -0.366547,-6.693303 -0.163058,-3.11466 -0.22604,-3.429174 -0.584293,-2.917692 -0.29835,0.425952 -0.721353,0.573268 -1.646065,0.573268 -2.529619,0 -4.287874,-2.974896 -2.697949,-4.564824 0.652608,-0.652602 0.564197,-0.986009 -0.322975,-1.218016 -0.594563,-0.155483 -0.603378,-0.105972 -0.462362,2.59868 0.380347,7.294802 0.869592,13.880337 1.045843,14.07767 0.214045,0.239646 3.814642,1.246031 4.679685,1.308001 0.508578,0.03647 0.528255,-0.139119 0.354663,-3.163784 z m -3.383828,-2.0268 c -0.667244,-0.514817 -0.636396,-1.520277 0.05336,-1.739192 0.843651,-0.267769 1.761124,0.435011 1.664892,1.275284 -0.09469,0.826804 -0.948973,1.057457 -1.718252,0.463908 z M 18.136596,77.018069 c 2.506763,-3.376469 2.51897,-3.401116 2.466944,-4.981427 -0.06138,-1.864346 -0.293526,-3.160416 -0.561966,-3.137392 -0.104982,0.0086 -0.831342,0.857584 -1.614138,1.885734 -1.338619,1.758192 -2.035359,2.642812 -3.908796,4.962857 -0.868205,1.075187 -0.941322,1.773028 -0.459657,4.387115 l 0.328318,1.78185 0.615033,-0.752743 c 0.338268,-0.414009 1.748686,-2.279711 3.134262,-4.145994 z m -5.544544,1.718536 c 0,-1.008344 -0.109228,-1.276296 -0.569305,-1.396619 -0.313118,-0.08187 -0.569306,-0.06616 -0.569306,0.03496 0,0.232621 0.971664,2.606879 1.067448,2.60831 0.03914,5.7e-4 0.07117,-0.560412 0.07117,-1.246667 z m 3.666836,-6.896682 c 2.487799,-3.195801 3.146946,-4.216829 2.845512,-4.40775 -0.215771,-0.136676 -0.464416,-0.250448 -0.552544,-0.252847 -0.253906,-0.0065 -1.426621,1.348389 -3.690798,4.265436 -1.154436,1.487302 -2.266163,2.874303 -2.470507,3.082212 -0.204342,0.207908 -0.503293,0.62421 -0.664336,0.925126 -0.256309,0.478916 -0.193861,0.547104 0.501024,0.547104 0.684724,0 1.238839,-0.571655 4.031649,-4.159281 z m -1.681923,-1.928166 c 0.0042,-0.138635 -0.374578,0.181604 -0.841754,0.711634 -0.467176,0.53003 -0.848012,1.091786 -0.846302,1.248345 0.0038,0.343057 1.677117,-1.59987 1.688056,-1.959979 z m -3.228764,0.607878 c -0.09441,-0.352255 -0.177462,-1.216886 -0.184579,-1.921409 -0.01201,-1.188463 -0.04311,-1.241051 -0.430866,-0.728385 -0.420448,0.555883 -0.581685,2.746966 -0.228157,3.100491 0.104368,0.104358 0.3755,0.18977 0.602505,0.18977 0.28911,0 0.361326,-0.191836 0.241097,-0.640467 z m 2.126792,-0.853958 c 0.30097,-0.352256 1.431847,-1.793308 2.513059,-3.202342 1.081213,-1.409034 2.301091,-2.939339 2.710841,-3.400686 1.884191,-2.121443 -0.283112,-2.223369 -4.341222,-0.204165 -2.474814,1.2314 -2.639689,1.521278 -2.293961,4.03317 0.391209,2.842307 0.508784,3.414489 0.701628,3.414489 0.08934,0 0.408686,-0.28821 0.709655,-0.640466 z m 2.900032,-1.92141 c 0.145851,-0.234837 -0.133276,0.01646 -0.620282,0.558562 -0.487007,0.542036 -0.885468,1.103707 -0.885468,1.248151 0,0.245262 0.907915,-0.844125 1.50575,-1.806713 z m 22.920492,0.789451 c 0.146621,-0.774152 -1.241667,-1.980786 -2.157597,-1.875277 -1.786547,0.2058 -0.642651,2.629558 1.158505,2.45471 0.587111,-0.05702 0.938771,-0.260938 0.999092,-0.579433 z M 28.24796,68.028927 c 0,-0.156558 -0.232222,-0.28466 -0.51605,-0.28466 -0.532238,0 -1.85553,-1.237812 -2.130166,-1.992566 -0.108299,-0.297624 -0.162175,-0.249082 -0.17784,0.160238 -0.031,0.809924 1.570773,2.269717 2.610567,2.379163 0.117418,0.01237 0.213489,-0.105649 0.213489,-0.262175 z m 1.423265,-0.963975 c 0,-0.06046 -0.384282,-0.166424 -0.853959,-0.235354 -0.469678,-0.06896 -0.853959,-0.01947 -0.853959,0.110017 0,0.129447 0.384281,0.235354 0.853959,0.235354 0.469677,0 0.853959,-0.04949 0.853959,-0.110017 z m -0.30023,-1.758998 c -0.54061,-0.651397 -1.839664,-1.26217 -2.684505,-1.26217 -1.208508,0 -0.397226,1.048882 1.064502,1.376264 1.885586,0.422304 2.055261,0.410362 1.620003,-0.114094 z m 0.584882,-2.400778 c 0,-0.759079 -0.09488,-0.853958 -0.853959,-0.853958 -0.713268,0 -0.853958,0.11333 -0.853958,0.687911 0,0.698745 0.313315,0.95709 1.209774,0.997531 0.368718,0.01668 0.498143,-0.199399 0.498143,-0.831484 z m 31.022874,19.803576 c 0.0022,-1.554468 -0.113803,-3.219695 -0.25814,-3.700483 -0.144326,-0.480788 -0.478353,-1.642732 -0.74226,-2.582091 -2.007585,-7.145657 -9.541846,-16.297682 -16.725169,-20.316414 -2.864823,-1.602742 -3.706986,-2.020302 -5.995948,-2.972949 -1.385542,-0.576646 -2.700242,-1.048451 -2.921554,-1.048451 -0.221315,0 -0.624814,-0.112964 -0.896668,-0.251029 -1.687798,-0.857175 -7.843065,-1.581418 -11.311089,-1.330906 -2.537405,0.183294 -5.315751,0.741726 -6.689341,1.344516 -2.543708,1.116294 -4.711316,2.514646 -3.898002,2.514646 0.246712,0 0.514056,-0.105972 0.594095,-0.235472 0.143028,-0.231427 2.129181,-0.828913 4.802418,-1.444699 1.648191,-0.379669 7.191288,-0.41145 8.836431,-0.05067 0.656423,0.143949 1.962061,0.416108 2.901415,0.60478 4.436754,0.891162 9.393539,2.990345 13.833725,5.858538 2.402114,1.551671 2.134563,1.356489 4.384058,3.198221 2.542391,2.081529 3.670146,3.184494 4.856021,4.749236 0.58788,0.775701 1.155817,1.474414 1.262083,1.552693 0.482865,0.355699 3.154109,4.308986 4.039138,5.97771 2.120851,3.998839 3.073143,7.343366 3.091615,10.857899 l 0.01248,2.378464 0.410188,-1.138618 c 0.251642,-0.698487 0.411858,-2.231094 0.414483,-3.964929 z m 2.979555,-2.724405 c 0.302218,-0.704522 0.973313,-2.218979 1.491315,-3.365462 0.518002,-1.146484 0.941824,-2.196893 0.941824,-2.334247 0,-0.137344 0.166735,-0.352148 0.370534,-0.477345 0.310072,-0.190491 1.906692,-3.242009 1.906692,-3.64412 0,-0.07004 0.384273,-0.96645 0.853959,-1.991921 0.469674,-1.025482 0.854744,-1.957364 0.855712,-2.070867 8.5e-4,-0.113492 0.165229,-0.526587 0.365037,-0.917993 0.373332,-0.731301 0.841618,-2.178765 1.312283,-4.056301 0.239581,-0.95568 0.210394,-1.067451 -0.278754,-1.067451 -0.300496,0 -0.546361,-0.116073 -0.546361,-0.257935 0,-0.141873 -0.640327,-0.346016 -1.422945,-0.453655 -0.78263,-0.107629 -1.494705,-0.311794 -1.582398,-0.453688 -0.08768,-0.141894 -0.464553,-0.257979 -0.837476,-0.257979 -0.372912,0 -0.757196,-0.128102 -0.853959,-0.28466 -0.09672,-0.156558 -0.61669,-0.284649 -1.155412,-0.284649 -0.538712,0 -0.979479,-0.113546 -0.979479,-0.252331 0,-0.138785 -0.57344,-0.338323 -1.274305,-0.443423 -0.700865,-0.105111 -1.348894,-0.311793 -1.440062,-0.459304 -0.09112,-0.14751 -0.470879,-0.26821 -0.843802,-0.26821 -0.372913,0 -0.757193,-0.128091 -0.853956,-0.284649 -0.09672,-0.156558 -0.545081,-0.284649 -0.996283,-0.284649 -0.451202,0 -0.890387,-0.11332 -0.975982,-0.251815 -0.08564,-0.138494 -0.730644,-0.338033 -1.433434,-0.443423 -0.702791,-0.105434 -1.352391,-0.31231 -1.443559,-0.45982 -0.09113,-0.147521 -0.606535,-0.26821 -1.145251,-0.26821 -0.538717,0 -0.979485,-0.128091 -0.979485,-0.284649 0,-0.156559 -0.312674,-0.284661 -0.694832,-0.284661 -0.382158,0 -0.769426,-0.120689 -0.860593,-0.268199 -0.09117,-0.147521 -0.740773,-0.35444 -1.443566,-0.45983 -0.702792,-0.105434 -1.347835,-0.30493 -1.433428,-0.443424 -0.08559,-0.138495 -0.524788,-0.251804 -0.975986,-0.251804 -0.451198,0 -0.899525,-0.128101 -0.996285,-0.28466 -0.09676,-0.156558 -0.488601,-0.284649 -0.870758,-0.284649 -0.382158,0 -0.694832,-0.116074 -0.694832,-0.257946 0,-0.141862 -0.640327,-0.346006 -1.422946,-0.453645 -0.782621,-0.107639 -1.494698,-0.311793 -1.58239,-0.453687 -0.08769,-0.141894 -0.528607,-0.25799 -0.979805,-0.25799 -0.451196,0 -0.899525,-0.128091 -0.996284,-0.284649 -0.09676,-0.156558 -0.488601,-0.284649 -0.870759,-0.284649 -0.382158,0 -0.694832,-0.118882 -0.694832,-0.264176 0,-0.145294 -0.70621,-0.352407 -1.569354,-0.46025 -0.863141,-0.107844 -1.639265,-0.3092 -1.724714,-0.447458 -0.08546,-0.138258 -0.468041,-0.251384 -0.850199,-0.251384 -0.382158,0 -0.694832,-0.128091 -0.694832,-0.284649 0,-0.156559 -0.256188,-0.28466 -0.569305,-0.28466 -0.615067,0 -0.762286,-0.416431 -0.257512,-0.728407 0.281155,-0.173761 0.839094,0.0097 2.317382,0.761618 0.271855,0.138301 0.8803,0.251449 1.352101,0.251449 0.471801,0 0.857822,0.113545 0.857822,0.25233 0,0.138785 0.573436,0.338324 1.274303,0.443424 0.700865,0.105111 1.348895,0.311782 1.440064,0.459303 0.09117,0.14751 0.606529,0.2682 1.145247,0.2682 0.538716,0 0.979484,0.128102 0.979484,0.28466 0,0.156558 0.312675,0.284649 0.694832,0.284649 0.382158,0 0.764865,0.113309 0.850461,0.251803 0.08559,0.138495 0.730635,0.338044 1.433426,0.443435 0.702793,0.105434 1.352397,0.312309 1.443566,0.45982 0.09117,0.14751 0.606529,0.26821 1.145247,0.26821 0.538716,0 0.979484,0.128091 0.979484,0.284649 0,0.156558 0.312673,0.284649 0.694832,0.284649 0.382158,0 0.769425,0.1207 0.860594,0.268211 0.09117,0.14751 0.740771,0.354429 1.443565,0.459819 0.702791,0.105434 1.347834,0.30494 1.433427,0.443435 0.08559,0.138494 0.524788,0.251803 0.975986,0.251803 0.4512,0 0.89953,0.128091 0.996281,0.284649 0.09672,0.156559 0.48861,0.284661 0.870764,0.284661 0.382154,0 0.694829,0.118871 0.694829,0.264165 0,0.145294 0.706211,0.352406 1.569358,0.46025 0.863135,0.107843 1.639267,0.3092 1.724711,0.447458 0.08542,0.138268 0.460483,0.251384 0.833396,0.251384 0.372923,0 0.757207,0.128101 0.853958,0.28466 0.09672,0.156558 0.48861,0.284649 0.870764,0.284649 0.382153,0 0.694829,0.118882 0.694829,0.264165 0,0.145305 0.706211,0.352406 1.569358,0.46025 0.863135,0.107844 1.639267,0.3092 1.724711,0.447469 0.08542,0.138258 0.532085,0.251384 0.992528,0.251384 0.460433,0 0.837154,0.128091 0.837154,0.284649 0,0.156558 0.294623,0.284649 0.6547,0.284649 0.360088,0 0.7764,0.112556 0.925126,0.250136 0.148737,0.13757 0.750774,0.335505 1.337867,0.439874 l 1.067451,0.189748 -2.8e-4,-1.507324 c -2.91e-4,-1.768413 -0.58138,-4.908301 -1.276984,-6.90132 -0.529234,-1.516221 -1.866552,-4.478325 -2.127016,-4.711183 -0.08757,-0.07832 -0.493128,-0.658078 -0.901253,-1.288442 -0.408125,-0.630364 -1.196876,-1.614468 -1.752769,-2.186897 l -1.010732,-1.04077 -8.278581,-0.204391 c -7.638529,-0.188575 -8.278574,-0.167467 -8.278574,0.272987 0,0.927698 -2.378485,2.930539 -4.061074,3.419686 -3.753546,1.091184 -11.52414,0.211728 -14.630596,-1.655846 -1.442136,-0.867008 -1.669455,-1.706647 -0.842626,-3.112368 0.808925,-1.375296 1.506038,-2.016364 3.761718,-3.45931 1.567011,-1.002404 6.094381,-5.332886 6.094381,-5.829349 0,-0.251018 -0.116901,-0.237463 -2.704203,0.313385 -2.322494,0.494473 -6.269325,2.532505 -7.827954,4.042131 -0.704515,0.682371 -2.817315,2.895229 -4.695112,4.917478 -3.251449,3.501569 -4.874155,5.239643 -8.476074,9.078718 -0.877975,0.935777 -1.550423,1.747315 -1.494331,1.803399 0.0561,0.05605 0.592742,-0.114159 1.192553,-0.378335 3.394778,-1.495199 4.557421,-1.70356 9.487825,-1.700364 4.044585,0.0022 5.960423,0.231394 8.254932,0.985718 0.391399,0.128672 1.480196,0.453515 2.41955,0.721865 2.116462,0.60464 7.576454,3.205914 9.715409,4.628676 0.878018,0.584016 1.916299,1.274112 2.307288,1.533532 2.773265,1.840064 9.183942,8.336034 9.183942,9.306142 0,0.157677 0.160346,0.455968 0.356312,0.662844 1.057941,1.116811 3.913478,6.512172 3.913478,7.394243 0,0.226241 0.114385,0.533031 0.254192,0.681768 0.483166,0.514021 1.169076,4.375915 1.17027,6.588978 l 0.0011,2.221023 0.642392,-1.280932 c 0.353321,-0.704523 0.889666,-1.857364 1.191884,-2.561876 z M 44.414543,43.829286 c 0.979314,-0.473161 2.0512,-1.723528 2.0512,-2.392763 0,-0.08133 -1.622718,-0.183809 -3.60604,-0.227629 -2.523763,-0.05573 -3.640641,-0.183852 -3.721323,-0.426823 -0.0858,-0.258388 0.818086,-0.367565 3.534879,-0.426974 l 3.650157,-0.07983 0.07987,-0.996283 c 0.04393,-0.547954 0.230907,-1.316522 0.415504,-1.707917 0.386701,-0.819897 2.099619,-3.291477 2.858271,-4.124219 0.502159,-0.551192 0.494798,-0.574603 -0.280363,-0.891861 -1.509904,-0.61796 -3.514734,-0.96163 -5.609816,-0.96163 h -2.101385 l -1.096876,1.318942 c -2.435493,2.92857 -3.051917,3.520569 -5.161069,4.956596 -3.068723,2.089339 -4.048412,3.06246 -4.048412,4.021238 0,0.999414 0.818043,1.5586 2.84149,1.942346 0.839965,0.159291 1.59035,0.352762 1.667525,0.429943 0.07717,0.07714 1.760125,0.140313 3.739894,0.140313 3.025712,0 3.788804,-0.09145 4.786492,-0.573451 z M 31.085437,39.722721 c 0.0049,-0.147338 -0.179016,-0.01926 -0.408876,0.28465 -0.229857,0.303907 -0.421998,0.673107 -0.426979,0.820445 -0.0049,0.147349 0.179015,0.01926 0.408876,-0.284649 0.229857,-0.303907 0.421997,-0.673097 0.426979,-0.820446 z m 33.313441,1.025837 c 0,-0.315515 -2.00312,-2.159151 -4.127479,-3.798859 -1.665116,-1.285247 -7.029344,-4.217732 -7.715255,-4.217732 -0.389579,0 -2.956657,3.428626 -3.47332,4.639004 -0.186923,0.437904 -0.339858,1.302535 -0.339858,1.921409 v 1.125214 h 4.981425 c 3.131177,0 4.98143,0.105756 4.98143,0.28466 0,0.170791 1.138608,0.284649 2.846522,0.284649 1.565592,0 2.846535,-0.107263 2.846535,-0.238345 z m 3.253176,-0.208963 c 0.669719,-0.669718 0.655647,-0.708944 -0.982383,-2.737648 -2.054783,-2.544856 -5.464151,-5.639279 -6.213225,-5.639279 -0.153965,0 -0.322624,-0.101238 -0.374813,-0.22495 -0.134977,-0.319991 -3.052454,-1.653877 -4.137646,-1.891748 -0.795088,-0.174278 -1.019166,-0.0794 -1.753463,0.742414 -0.463036,0.518228 -0.794116,1.019521 -0.735737,1.113981 0.05838,0.09446 0.975535,0.594721 2.038116,1.111701 2.716455,1.321621 6.75102,4.197539 8.754732,6.24053 1.768982,1.803647 2.579735,2.109673 3.404419,1.284999 z M 36.941578,35.559556 c 0.29207,-0.472579 0.02992,-0.538109 -0.378746,-0.09468 -0.20187,0.219044 -0.241454,0.39827 -0.08796,0.39827 0.153491,0 0.363508,-0.136611 0.466708,-0.303595 z m 1.553885,-1.776642 c 0,-0.156257 -0.256188,0.0113 -0.569305,0.37232 -0.313119,0.361024 -0.569306,0.720714 -0.569306,0.799306 0,0.07864 0.256187,-0.08897 0.569306,-0.372332 0.313117,-0.283358 0.569305,-0.643048 0.569305,-0.799294 z m 1.99257,-2.189555 c 0,-0.156558 -0.05648,-0.28465 -0.125526,-0.28465 -0.06904,0 -0.204694,0.128092 -0.301453,0.28465 -0.09676,0.156558 -0.04027,0.284649 0.125526,0.284649 0.165799,0 0.301453,-0.128091 0.301453,-0.284649 z m 9.393544,-2.337636 c 0,-0.467824 -3.337685,0.01119 -4.621746,0.663339 -0.271855,0.138075 -0.709509,0.251029 -0.972565,0.251029 -1.012678,0 -0.0582,0.346726 1.940576,0.704942 l 2.088145,0.374236 0.782795,-0.884653 c 0.430537,-0.486555 0.782795,-0.985557 0.782795,-1.108893 z m 33.30439,33.63054 v -2.580779 l 0.78279,0.09005 c 0.757993,0.08725 0.785459,0.150942 0.866966,2.01148 0.08004,1.827326 0.118376,1.921399 0.782791,1.921399 0.508857,0 0.698627,0.154643 0.698627,0.569309 0,0.500304 -0.18977,0.569309 -1.565582,0.569309 h -1.565592 z m 3.475909,0.09005 0.0822,-2.490708 1.636749,-0.08542 c 1.47194,-0.07682 1.63676,-0.0284 1.63676,0.48011 0,0.42664 -0.221744,0.587373 -0.9032,0.654668 -1.21012,0.119505 -1.430573,0.800833 -0.25913,0.800833 0.677852,0 0.87767,0.125304 0.87767,0.550395 0,0.384349 -0.229533,0.577572 -0.760843,0.640477 -1.200039,0.142056 -1.179071,0.801694 0.0255,0.801694 0.830236,0 1.020005,0.105971 1.020005,0.569309 0,0.506458 -0.189769,0.569309 -1.718998,0.569309 H 86.57959 l 0.0823,-2.490718 z m 3.985144,0 0.08219,-2.490708 1.408529,-0.08908 c 1.79505,-0.113503 2.557895,0.304187 2.999533,1.642376 0.280625,0.850311 0.280518,1.208011 -5.71e-4,1.750284 -0.752462,1.45194 -1.142513,1.677837 -2.8971,1.677837 h -1.674889 z m 2.729515,1.010516 c 0.795508,-0.795496 0.01678,-2.768923 -0.946665,-2.399196 -0.284348,0.109113 -0.419669,0.576937 -0.419669,1.450918 0,1.052324 0.09435,1.289862 0.512376,1.289862 0.281809,0 0.666093,-0.153707 0.853958,-0.341584 z M 80.624091,42.145296 c 0,-1.956762 -0.01969,-2.012373 -0.711634,-2.012373 -0.521864,0 -0.711634,-0.151814 -0.711634,-0.56931 0,-0.518701 0.18977,-0.569298 2.134902,-0.569298 1.945121,0 2.134891,0.05056 2.134891,0.569298 0,0.414667 -0.18977,0.56931 -0.698627,0.56931 -0.664415,0 -0.702747,0.09403 -0.782791,1.921409 -0.07649,1.74583 -0.142701,1.929715 -0.724641,2.012362 -0.612376,0.08693 -0.640466,0.0022 -0.640466,-1.921398 z m 3.588487,1.546657 c -0.855045,-0.647266 -0.959865,-2.926956 -0.17999,-3.914847 0.510073,-0.646125 0.841263,-0.782791 1.896955,-0.782791 1.675642,0 2.262842,0.347554 2.669633,1.580138 0.630321,1.909909 -0.656883,3.552317 -2.770161,3.534555 -0.592601,-0.0054 -1.319996,-0.192653 -1.616437,-0.417055 z m 2.510299,-1.258329 c 0.955896,-1.056251 -0.04325,-2.84532 -1.188527,-2.12821 -0.624608,0.391095 -0.79809,1.667842 -0.302842,2.22877 0.507233,0.574517 0.904696,0.547706 1.491369,-0.100592 z m 2.911894,1.16388 c -0.346177,-0.38252 -0.471094,-1.061867 -0.471094,-2.561876 0,-1.987639 0.01872,-2.041313 0.711633,-2.041313 0.676056,0 0.71185,0.08177 0.715981,1.636749 0.0054,1.979119 0.30891,2.630591 0.970237,2.081744 0.315332,-0.261712 0.448673,-0.86958 0.448673,-2.045434 0,-1.594834 0.03324,-1.673059 0.711634,-1.673059 0.694485,0 0.711634,0.05035 0.711634,2.09077 0,1.664012 -0.106294,2.186941 -0.520562,2.561876 -0.718466,0.650203 -2.671624,0.620735 -3.278136,-0.04949 z m 5.197286,0.155687 c -1.263116,-0.969785 -1.465086,-2.873594 -0.424026,-3.996914 0.636001,-0.686254 0.858456,-0.740994 2.846525,-0.700445 l 2.156622,0.044 v 0.801198 c 0,0.44067 0.12809,0.820425 0.28465,0.8439 0.850852,0.127628 1.003232,0.02657 1.137172,-0.754324 0.11637,-0.678487 0.30939,-0.872689 0.93929,-0.945126 l 0.79282,-0.09113 -0.0825,2.510719 c -0.0811,2.466318 -0.0951,2.510718 -0.79417,2.510718 -0.5948,0 -0.72628,-0.151889 -0.80082,-0.925126 -0.0739,-0.766212 -0.20835,-0.925126 -0.78281,-0.925126 -0.602902,0 -0.693592,0.130264 -0.693592,0.996283 0,0.769623 -0.11657,0.996294 -0.512372,0.996294 -0.281809,0 -0.651634,-0.139258 -0.821834,-0.309458 -0.222841,-0.222842 -0.362993,-0.222842 -0.500713,0 -0.257312,0.416344 -2.180313,0.377517 -2.7442,-0.05541 z m 2.657713,-1.266215 c 0.350212,-0.1007 0.498141,-0.434225 0.498141,-1.123116 0,-0.538938 -0.119247,-0.906191 -0.264982,-0.81611 -0.145746,0.09005 -0.345446,0.03357 -0.443779,-0.12553 -0.280593,-0.454 -1.488755,-0.33827 -1.680332,0.160958 -0.477765,1.245031 0.09844,2.585168 0.957821,2.227877 0.239238,-0.09941 0.659154,-0.245305 0.933131,-0.324079 z m 5.62189,-0.916563 v -2.576077 h 1.53074 c 1.75832,0 2.31672,0.437959 2.08477,1.635115 -0.0965,0.498324 0.0135,0.968655 0.30155,1.289517 0.41683,0.464199 0.4068,0.567868 -0.12399,1.280933 -0.49134,0.66009 -0.81741,0.78859 -2.1853,0.86122 l -1.60777,0.08542 z m 2.49665,0.893131 c 0.0629,-0.188823 -0.14909,-0.338033 -0.48036,-0.338033 -0.59131,0 -0.76853,0.298904 -0.39732,0.670127 0.26372,0.263724 0.73901,0.08392 0.87768,-0.332094 z m -0.21942,-2.062745 c 0,-0.147316 -0.19215,-0.267855 -0.42698,-0.267855 -0.44019,0 -0.56553,0.335882 -0.24495,0.656454 0.22742,0.227414 0.67193,-0.02969 0.67193,-0.388599 z m 2.74833,3.196726 c -0.34706,-0.383487 -0.47111,-1.063244 -0.47111,-2.581671 0,-1.974643 0.0269,-2.0573 0.64048,-1.970156 0.56644,0.08047 0.65692,0.293901 0.78279,1.846637 0.15959,1.968672 0.35836,2.331923 0.98941,1.808198 0.29901,-0.248167 0.43386,-0.882146 0.43386,-2.039861 v -1.679784 l 4.91026,0.07789 c 4.14029,0.06563 4.91026,0.144842 4.91026,0.504866 0,0.254192 -0.31678,0.463434 -0.78279,0.517055 -0.77004,0.08865 -0.78281,0.122249 -0.78281,2.063734 0,1.783894 -0.0548,1.973664 -0.5693,1.973664 -0.51508,0 -0.5693,-0.18977 -0.5693,-1.992578 v -1.992566 h -1.42327 -1.42326 v 1.992566 c 0,1.802808 -0.0542,1.992578 -0.56931,1.992578 -0.51508,0 -0.56931,-0.18977 -0.56931,-1.992578 v -1.992566 h -0.85396 c -0.83498,0 -0.85396,0.03163 -0.85396,1.423268 0,1.043728 -0.15181,1.575071 -0.56929,1.992566 -0.74421,0.744211 -2.575,0.771839 -3.22939,0.04874 z m 12.924,-0.02647 c -0.57539,-0.44224 -0.69521,-0.782887 -0.69521,-1.976546 0,-1.881765 0.73795,-2.60022 2.6708,-2.60022 1.60309,0 2.25718,0.581069 2.47404,2.197872 0.12194,0.909107 0.0129,1.263934 -0.61873,2.014664 -0.63902,0.759413 -0.96407,0.910161 -1.95121,0.904879 -0.71369,-0.0043 -1.4608,-0.218699 -1.87969,-0.540649 z m 2.48852,-0.933216 c 0.36827,-0.368254 0.44721,-1.329185 0.16881,-2.054686 -0.20442,-0.532709 -0.99598,-0.590902 -1.47821,-0.108672 -0.71085,0.710848 -0.24194,2.504941 0.6547,2.504941 0.17222,0 0.46684,-0.153707 0.6547,-0.341583 z m 2.45418,1.097747 c -0.0807,-0.210351 -0.10872,-1.331175 -0.0622,-2.490719 l 0.0846,-2.108253 0.90911,-0.088 c 0.77806,-0.07531 0.97827,0.04572 1.38901,0.840037 0.26395,0.510428 0.65544,1.103578 0.86997,1.318114 0.33033,0.330319 0.39007,0.190749 0.39007,-0.911204 0,-1.111497 0.0831,-1.301267 0.56931,-1.301267 0.52714,0 0.5693,0.18977 0.5693,2.561876 v 2.561876 l -0.78279,-0.0086 c -0.63294,-0.0075 -0.95814,-0.29331 -1.69867,-1.494436 l -0.91586,-1.485506 -0.01,1.494425 c -0.009,1.309324 -0.0809,1.494436 -0.58749,1.494436 -0.31804,0 -0.64429,-0.172104 -0.72501,-0.382455 z"
       id="path31" />
  </g>
</svg>
