<?xml version="1.0" standalone="no"?>
<!DOCTYPE svg PUBLIC "-//W3C//DTD SVG 20010904//EN"
 "http://www.w3.org/TR/2001/REC-SVG-20010904/DTD/svg10.dtd">
<svg version="1.0" xmlns="http://www.w3.org/2000/svg"
 width="500.000000pt" height="500.000000pt" viewBox="0 0 500.000000 500.000000"
 preserveAspectRatio="xMidYMid meet">
<metadata>
Created by potrace 1.15, written by Peter Selinger 2001-2017
</metadata>
<g transform="translate(0.000000,500.000000) scale(0.100000,-0.100000)"
fill="#000000" stroke="none">
<path d="M4187 4884 c-4 -4 -7 -59 -7 -122 l0 -115 -22 21 c-49 45 -142 56
-206 23 -147 -76 -165 -268 -34 -368 73 -55 175 -55 236 2 34 32 36 31 36 -5
0 -28 3 -30 35 -30 l35 0 -2 298 -3 297 -30 3 c-17 2 -34 0 -38 -4z m-91 -253
c59 -27 88 -77 82 -145 -8 -91 -68 -143 -155 -133 -79 9 -134 89 -119 171 12
62 78 121 141 125 6 0 28 -8 51 -18z"/>
<path d="M201 4774 c-115 -21 -115 -22 -116 -211 0 -149 1 -161 25 -206 22
-44 89 -116 108 -117 4 -1 43 -2 87 -4 44 -2 137 -7 206 -11 115 -7 129 -6
173 14 113 50 166 122 166 227 0 115 -67 196 -218 266 -126 57 -270 72 -431
42z m296 -65 c103 -41 187 -93 220 -135 21 -29 26 -46 26 -93 0 -131 -111
-213 -265 -197 -35 4 -102 10 -150 14 -103 8 -134 27 -160 93 -24 61 -22 110
7 205 29 96 46 120 100 140 54 20 127 11 222 -27z"/>
<path d="M281 4667 c-45 -22 -66 -73 -65 -158 0 -42 6 -90 13 -108 14 -33 47
-48 78 -37 9 4 63 -1 120 -10 86 -14 110 -15 146 -5 69 21 107 69 107 135 0
47 -35 85 -118 129 -113 60 -227 82 -281 54z m200 -107 c26 -15 52 -68 45 -94
-12 -49 -102 -62 -135 -20 -54 69 14 154 90 114z"/>
<path d="M1145 4693 c-16 -8 -38 -22 -47 -31 -17 -14 -18 -13 -18 11 0 24 -4
27 -35 27 l-35 0 0 -295 0 -295 35 0 35 0 0 121 0 122 25 -25 c24 -24 84 -48
121 -48 42 0 98 23 134 56 109 99 88 285 -40 350 -53 28 -131 31 -175 7z m152
-68 c44 -29 64 -74 61 -135 -6 -95 -65 -147 -152 -138 -141 16 -172 212 -44
277 48 24 93 23 135 -4z"/>
<path d="M1605 4693 c-111 -58 -156 -187 -102 -293 73 -143 277 -160 364 -31
13 19 23 38 23 42 0 18 -69 9 -82 -9 -52 -73 -175 -71 -230 3 -9 12 -20 34
-24 49 l-6 26 176 0 c176 0 176 0 176 23 0 73 -51 152 -121 188 -47 23 -132
25 -174 2z m162 -70 c28 -21 60 -69 51 -78 -3 -3 -65 -4 -137 -3 l-132 3 23
35 c45 68 136 88 195 43z"/>
<path d="M2076 4685 c-34 -23 -36 -23 -36 -5 0 16 -7 20 -35 20 l-35 0 0 -205
0 -205 34 0 35 0 3 149 c3 168 9 181 79 203 70 21 129 -22 129 -94 0 -38 0
-38 40 -38 l40 0 -6 48 c-13 97 -70 152 -159 152 -39 0 -61 -6 -89 -25z"/>
<path d="M2510 4703 c-8 -3 -25 -15 -37 -26 l-23 -20 0 21 c0 18 -6 22 -35 22
l-35 0 0 -206 0 -205 38 3 37 3 2 143 c2 159 8 179 63 202 46 19 91 3 113 -40
14 -29 17 -59 16 -170 l-1 -135 36 -3 36 -3 0 146 c0 81 5 155 10 166 29 53
121 61 160 12 18 -23 20 -40 20 -174 l0 -149 35 0 35 0 0 153 c0 125 -3 158
-18 187 -25 51 -74 80 -134 80 -53 0 -79 -10 -116 -44 -22 -19 -24 -20 -33 -3
-21 37 -115 60 -169 40z"/>
<path d="M3536 4684 c-36 -25 -38 -25 -31 -5 6 19 2 21 -29 21 l-36 0 0 -205
0 -205 35 0 35 0 0 144 c0 140 1 145 26 175 30 36 81 49 125 31 50 -21 59 -52
59 -210 l0 -140 35 0 35 0 0 148 c0 136 -2 153 -23 192 -43 81 -153 107 -231
54z"/>
<path d="M4430 4687 c-53 -27 -104 -96 -113 -153 -25 -154 119 -286 267 -244
150 42 206 230 103 347 -64 73 -170 94 -257 50z m143 -51 c66 -27 108 -105 92
-174 -3 -17 -21 -47 -39 -68 -28 -33 -38 -37 -87 -41 -97 -7 -156 57 -147 159
6 58 31 96 79 120 41 22 59 22 102 4z"/>
<path d="M3032 4541 l3 -159 31 -39 c53 -65 152 -81 215 -34 35 26 38 26 32 1
-5 -17 0 -20 31 -20 l36 0 0 205 0 205 -35 0 -35 0 0 -134 c0 -74 -4 -146 -10
-160 -23 -61 -121 -80 -168 -32 -26 26 -27 29 -30 176 l-3 150 -35 0 -35 0 3
-159z"/>
<path d="M2067 3756 c-24 -25 -13 -24 -427 -42 -155 -6 -187 -14 -222 -52 -43
-46 -48 -66 -58 -244 -34 -643 -35 -1575 0 -2205 10 -186 17 -212 70 -256 16
-14 30 -34 30 -44 0 -34 21 -43 100 -43 l76 0 -4 -70 c-4 -66 -3 -70 17 -70
19 0 21 5 21 68 l0 67 75 -3 75 -4 0 27 c0 17 5 25 13 23 6 -3 12 -10 12 -16
0 -29 28 -35 184 -40 151 -4 159 -4 170 15 5 11 7 23 4 27 -3 3 1 6 10 6 11 0
17 -8 17 -25 0 -25 1 -25 80 -25 l80 0 0 -60 c0 -47 3 -60 15 -60 12 0 15 13
15 60 l0 59 82 3 83 3 6 30 c6 30 9 28 24 -20 3 -10 18 -15 50 -15 45 0 45 0
45 -35 0 -24 5 -35 15 -35 14 0 19 16 16 51 -2 19 58 27 229 31 l105 2 0 -67
c0 -57 3 -67 18 -67 14 0 17 10 17 70 l0 69 83 3 82 3 3 31 c2 21 11 36 28 44
49 27 68 75 75 195 31 475 31 1903 0 2337 -14 197 -43 222 -276 232 -447 19
-408 15 -428 42 l-19 24 -284 0 -285 0 -22 -24z m1073 -72 c104 -6 152 -23
183 -66 25 -33 31 -138 48 -810 12 -474 4 -1143 -20 -1619 -11 -219 -22 -230
-235 -241 -479 -23 -1548 -13 -1635 16 -56 18 -78 61 -85 163 -42 591 -32
2356 13 2476 11 28 38 53 72 66 15 5 118 13 230 17 112 3 206 9 209 12 6 6
1088 -6 1220 -14z"/>
</g>
</svg>
