<?xml version="1.0" encoding="UTF-8" standalone="no"?>
<svg
   version="1.0"
   width="500.000000pt"
   height="500.000000pt"
   viewBox="0 0 500.000000 500.000000"
   preserveAspectRatio="xMidYMid meet"
   id="svg28"
   sodipodi:docname="permundo.svg"
   inkscape:version="1.1 (c68e22c387, 2021-05-23)"
   xmlns:inkscape="http://www.inkscape.org/namespaces/inkscape"
   xmlns:sodipodi="http://sodipodi.sourceforge.net/DTD/sodipodi-0.dtd"
   xmlns="http://www.w3.org/2000/svg"
   xmlns:svg="http://www.w3.org/2000/svg">
  <defs
     id="defs32" />
  <sodipodi:namedview
     id="namedview30"
     pagecolor="#ffffff"
     bordercolor="#666666"
     borderopacity="1.0"
     inkscape:pageshadow="2"
     inkscape:pageopacity="0.0"
     inkscape:pagecheckerboard="0"
     inkscape:document-units="pt"
     showgrid="false"
     inkscape:zoom="0.62698678"
     inkscape:cx="136.36651"
     inkscape:cy="338.12515"
     inkscape:window-width="1368"
     inkscape:window-height="850"
     inkscape:window-x="-6"
     inkscape:window-y="-6"
     inkscape:window-maximized="1"
     inkscape:current-layer="g26" />
  <metadata
     id="metadata2">
Created by potrace 1.15, written by Peter Selinger 2001-2017
</metadata>
  <g
     transform="translate(0.000000,500.000000) scale(0.100000,-0.100000)"
     fill="#000000"
     stroke="none"
     id="g26">
    <path
       d="m 2216.6053,3065.5892 c -182.9853,-33.4147 -182.9853,-35.0058 -184.5764,-335.7381 0,-237.0852 1.5911,-256.1793 39.7794,-327.7822 35.0059,-70.0117 141.6147,-184.5764 171.8471,-186.1677 6.3646,-1.591 68.4204,-3.1822 138.4322,-6.3646 70.0117,-3.1823 217.9911,-11.1383 327.7822,-17.503 182.9852,-11.1381 205.2617,-9.547 275.2735,22.2766 179.8028,79.5588 264.1351,194.1235 264.1351,361.1968 0,182.9853 -106.6088,311.8706 -346.8763,423.2529 -200.4881,90.697 -429.6175,114.5646 -685.7968,66.8293 z m 470.9881,-103.4265 c 163.8911,-65.238 297.5499,-147.9791 350.0586,-214.8086 33.4147,-46.1441 41.3707,-73.1941 41.3707,-147.9794 0,-208.4441 -176.6206,-338.9204 -421.6616,-313.4617 -55.6912,6.3647 -162.3001,15.9118 -238.6765,22.2765 -163.8911,12.7294 -213.2175,42.9618 -254.5882,147.9793 -38.1882,97.0618 -35.0058,175.0294 11.1383,326.1911 46.1441,152.7529 73.1942,190.9411 159.1176,222.7647 85.9234,31.8234 202.0794,17.5029 353.2411,-42.9619 z"
       id="path6"
       style="stroke-width:1.59118" />
    <path
       d="m 2343.8994,2895.3334 c -71.6028,-35.0058 -105.0176,-116.1559 -103.4265,-251.4057 0,-66.8295 9.5471,-143.2058 20.6854,-171.847 22.2763,-52.5089 74.7852,-76.3765 124.1117,-58.8736 14.3206,6.3647 100.2439,-1.5912 190.9411,-15.9117 136.8411,-22.2765 175.0293,-23.8677 232.3116,-7.9558 109.7912,33.4145 170.2559,109.791 170.2559,214.8086 0,74.7853 -55.6912,135.25 -187.7588,205.2618 -179.8028,95.4705 -361.197,130.4764 -447.1204,85.9234 z m 318.2351,-170.2559 c 41.3706,-23.8675 82.7411,-108.1999 71.6029,-149.5705 -19.0941,-77.9675 -162.2999,-98.6529 -214.8087,-31.8234 -85.9235,109.7911 22.2765,245.041 143.2058,181.3939 z"
       id="path8"
       style="stroke-width:1.59118" />
    <path
       id="path24"
       style="stroke-width:1.59118"
       d="m 3751.5273,39.322266 c -7.1453,0.0748 -14.3542,1.095873 -21.0095,3.787293 -7.8867,3.098095 -14.8596,8.41443 -19.9889,15.153793 -6.0535,7.877685 -9.5884,17.3808 -11.7107,27.009483 -2.4877,11.071481 -3.4215,22.416655 -4.1223,33.719825 -1.1591,20.36595 -1.1506,40.77358 -1.1929,61.16554 v 71.8086 c -46.7988,-0.89327 -93.5979,-1.76898 -140.3959,-2.69576 -18.7914,-0.44828 -37.5815,-0.9463 -56.3698,-1.51127 -1.2055,-0.0352 -2.6654,-0.0828 -3.9687,-0.12276 -16.7008,-0.5161 -33.3995,-1.09485 -50.0957,-1.74248 -0.4878,-0.0238 -1.3327,-0.0549 -1.9573,-0.0815 -4.2904,-0.17267 -8.6391,-0.35637 -12.9548,-0.53372 -0.4878,-0.0257 -1.3326,-0.0592 -1.9571,-0.0879 -3.2988,-0.14517 -6.5976,-0.29034 -9.8965,-0.43551 -0.395,-0.0147 -1.1994,-0.056 -1.7511,-0.0809 -29.5312,-1.37659 -59.057,-3.02168 -88.5068,-5.44247 -13.3479,-1.1154 -26.6853,-2.37734 -39.9862,-3.96298 -0.1665,-0.0242 -1.3211,-0.16308 -1.5387,-0.18833 -16.2348,-2.02939 -32.4829,-4.33024 -48.3676,-8.32736 -4.4255,-1.14525 -8.8387,-2.39166 -13.0781,-4.11712 0.9332,-14.80667 1.1554,-29.72865 -0.6734,-44.47803 -1.4835,-11.68601 -4.4828,-23.38969 -10.5151,-33.60262 -5.05,-8.51807 -12.3639,-15.79267 -21.2665,-20.22599 -10.1699,-5.10997 -22.0501,-6.63305 -33.2131,-4.52043 -10.2403,1.995 -19.6947,7.59925 -26.4668,15.52174 -7.0757,8.14917 -11.3618,18.35225 -13.8562,28.76282 -3.5754,14.84971 -4.0305,30.2156 -3.9709,45.42141 -0.01,6.59022 0,13.18852 -0.4716,19.76563 -4.2399,0.44331 -8.5016,0.64474 -12.7617,0.76758 -0.4043,0.013 -1.2003,0.0311 -1.7545,0.046 -17.1623,0.39021 -34.3488,-0.22053 -51.4923,0.88727 -334.9504,-1.22822 0,0 -334.9504,-1.22822 -0.011,-25.11076 0.036,-50.22175 -0.043,-75.33234 -0.1565,-17.51171 -0.4372,-35.05656 -2.2584,-52.48827 -1.1605,-10.75937 -2.9855,-21.574485 -7.0533,-31.656148 -3.6401,-8.972615 -9.4874,-17.23005 -17.5065,-22.785847 -7.8057,-5.489864 -17.3921,-8.20699 -26.8997,-8.161271 -10.4744,-0.09848 -21.0773,3.181991 -29.2802,9.783526 -8.0284,6.330477 -13.5287,15.393667 -16.7717,24.996118 -3.9451,11.558654 -5.3764,23.77572 -6.3627,35.891802 -1.1956,15.48327 -1.4254,31.021 -1.5221,46.54381 -0.075,22.95056 -0.014,45.90132 -0.035,68.85198 v 4.87031 c -43.1123,0.0103 -129.337,0.0413 -129.337,0.0413 l -267.1837,-0.12758 c 0,0 -71.7951,1.30107 -107.6866,2.21013 -21.0841,0.55364 -42.1707,1.04595 -63.2483,1.81484 -38.9026,1.34019 -77.8043,2.85478 -116.6562,5.28207 l -162.8589,1.86521 c -50.6515,2.69964 -101.3021,5.42136 -151.9553,8.08853 -28.9068,1.15669 -57.8136,2.31337 -86.7205,3.47006 -0.01,-30.1885 0.033,-60.37717 -0.04,-90.56556 -0.1003,-17.23635 -0.2195,-34.48723 -1.3447,-51.69312 -0.7961,-11.468883 -2.0055,-23.02417 -5.4436,-34.042913 -2.7398,-8.711527 -7.2611,-17.006259 -13.9149,-23.346939 -7.2376,-6.992027 -16.8059,-11.307809 -26.7017,-12.840383 -7.9655,-1.305042 -16.0763,-1.205456 -24.1167,-0.912534 -9.0923,0.434678 -18.3159,2.308398 -26.2532,6.931734 -8.9989,5.10485 -15.9194,13.52421 -19.7062,23.107321 -4.0133,9.840197 -5.1791,20.543656 -5.672,31.075234 -0.5948,13.37903 -0.06,26.77418 0.4957,40.14488 0.9694,21.69682 2.4356,43.36735 3.6139,65.05292 1.0719,18.75635 2.1439,37.5127 3.2159,56.26905 -32.6992,0.009 -65.3986,-0.028 -98.0976,0.0314 -24.1226,0.16404 -48.2802,0.75576 -72.2895,3.24611 -16.4707,1.7556 -32.9567,4.42528 -48.6832,9.76305 -12.3191,4.20863 -24.1532,10.34268 -33.8121,19.16928 -9.8832,8.9629 -17.1331,20.70996 -20.9941,33.46306 -3.1739,10.25003 -4.3083,21.02141 -4.4165,31.71574 -1.2706,3.95275 -3.3591,7.58348 -5.4619,11.14347 -5.338,8.70084 -11.7507,16.70324 -18.6316,24.22688 -5.428,5.91363 -11.2709,11.44409 -17.485,16.52579 -17.3907,14.68725 -34.0984,30.41864 -47.868,48.62244 -12.3772,16.24418 -22.1838,34.38503 -29.4453,53.45704 -9.46681,24.72032 -15.11847,50.70382 -19.4424,76.76043 -4.91572,30.03309 -7.9887,60.33031 -10.62674,90.637 -3.15073,36.93027 -5.4631,73.9259 -7.62935,110.92493 -1.97683,34.71441 -3.8535,69.43509 -5.69074,104.15715 -7.02,134.30241 -12.68613,268.67311 -17.38402,403.07621 -4.56432,130.5536 -8.21822,261.1388 -11.13104,391.7398 -3.40334,152.3476 -5.80144,304.718 -7.35625,457.0956 -1.55479,153.1268 -2.23421,306.2623 -2.11088,459.3969 0.10113,120.0273 0.7137,240.0541 1.83012,360.0762 1.66151,176.7884 4.41179,353.5679 8.43743,530.3185 3.808,166.6664 8.70777,333.3093 15.09167,499.8974 3.29665,86.1894 6.99866,172.3632 11.18148,258.5142 1.58597,32.4886 3.218,64.9751 4.967,97.4554 2.59047,45.3497 5.21832,90.7028 8.77917,135.9887 2.47998,31.1467 5.34233,62.287 9.92363,93.2042 3.65586,24.4344 8.46422,48.802 16.43002,72.2321 5.5546,16.2035 12.7613,31.8672 21.8365,46.4075 11.8643,19.1413 26.6796,36.2261 41.9879,52.6633 11.833,12.9099 24.5972,25.0679 38.907,35.2164 15.9732,11.3795 33.7364,20.1303 52.2646,26.4964 23.4479,8.1114 47.8935,12.8932 72.3931,16.511 25.5301,3.7403 51.2377,6.1159 76.959,8.0717 46.1534,3.4634 92.4029,5.386 138.6427,7.2614 70.8294,3.0688 141.6583,6.1497 212.4854,9.2716 63.6215,2.8386 127.3291,5.6861 190.9646,8.9267 24.6687,1.2608 49.334,2.5931 73.9905,4.0752 16.7497,1.0272 33.6828,2.1158 50.4888,3.373 0.6032,0.045 1.2818,0.092 1.695,0.1269 13.9573,1.0748 27.9104,2.2222 41.8357,3.6583 0.2753,0.034 1.1934,0.1268 1.7158,0.1833 1.2523,0.1322 2.5046,0.2645 3.7569,0.3968 0.1922,0.019 1.1907,0.133 1.695,0.1888 13.6022,1.5397 27.2078,3.2823 40.5985,6.1724 5.7677,1.3091 11.5348,2.8088 16.9703,5.1752 3.5271,1.5504 6.7474,3.754 9.4833,6.4655 5.255,5.1337 10.2019,10.5721 15.1668,15.9839 12.4763,13.6237 24.9642,27.2369 37.4435,40.858 h 933.0898 c 13.3592,-16.8843 26.7481,-33.7453 40.0692,-50.6591 3.7492,-4.988 6.8258,-10.4338 10.3597,-15.5665 0.6921,-0.9422 1.9297,-1.171 2.9216,-1.6758 4.4762,-1.7528 9.209,-2.7274 13.9077,-3.6748 11.9092,-2.295 23.9795,-3.6012 36.0368,-4.8301 0.3168,-0.027 1.195,-0.1144 1.7272,-0.1646 6.7391,-0.6543 13.4847,-1.2388 20.2337,-1.7807 0.31,-0.027 1.1969,-0.093 1.7283,-0.1347 28.0143,-2.1732 56.0695,-3.7755 84.1273,-5.2664 5.3938,-0.2804 10.7877,-0.5607 16.1815,-0.8411 1.2047,-0.064 2.6634,-0.1338 3.9657,-0.2 32.6678,-1.6516 65.3441,-3.1261 98.0206,-4.591 97.789,-4.2993 195.7255,-8.339 293.5736,-12.481 32.6134,-1.3916 65.2303,-2.7092 97.8388,-4.2095 41.6347,-1.99 83.263,-4.4817 124.7393,-8.6896 28.8432,-2.9509 57.6288,-6.7693 86.0552,-12.5352 26.4778,-5.3996 52.7172,-12.5397 77.6057,-23.1763 21.109,-9.036 41.1826,-20.7685 58.6237,-35.7701 17.2068,-14.7395 31.6856,-32.5727 42.9688,-52.2008 14.5156,-25.1184 24.0896,-52.774 31.0746,-80.8404 7.0178,-28.2018 11.5319,-56.96 15.1022,-85.7809 5.1898,-42.2582 8.2178,-84.7426 11.0271,-127.2137 3.5434,-54.2571 6.3107,-108.5621 8.7773,-162.8782 3.6912,-81.9179 6.5482,-163.8708 9.0395,-245.8337 3.9275,-130.8791 6.8114,-261.7877 9.1146,-392.7049 3.9107,-224.0211 6.1286,-448.0682 7.258,-672.12 0.9968,-200.2347 1.0789,-400.4738 0.2964,-600.7094 -0.8396,-212.2575 -2.6575,-424.5118 -5.7758,-636.7482 -1.7489,-118.7228 -3.9256,-237.4391 -6.7129,-356.1421 -1.932,-82.1414 -4.1462,-164.2764 -6.8297,-246.3966 -2.3021,-70.1787 -4.9114,-140.34865 -8.0952,-210.49316 -2.5818,-56.69059 -5.5432,-113.36512 -9.2124,-169.99617 -0.035,-0.63706 -0.097,-1.59735 -0.1426,-2.35842 -2.3542,-38.58327 -5.6271,-77.15162 -11.4509,-115.38135 -4.1543,-27.07333 -9.6372,-54.00985 -17.8737,-80.15834 -8.1568,-25.82002 -19.2395,-50.92937 -34.8918,-73.12338 -13.1837,-18.76347 -29.6738,-35.18168 -48.4562,-48.33471 -7.5415,-5.30563 -15.3924,-10.18651 -23.5467,-14.49227 -7.4185,-3.43041 -14.0612,-8.77365 -18.4207,-15.74318 -5.0632,-7.97588 -7.5084,-17.31651 -8.6946,-26.60772 -0.7656,-6.41044 -1.2547,-12.84978 -1.9259,-19.27039 -1.9229,-19.87076 -3.847,-39.7414 -5.7688,-59.61228 -86.625,-3.1718 -173.25,-6.34381 -259.8769,-9.46289 -0.01,-31.15204 0.031,-62.30425 -0.036,-93.45619 -0.1358,-18.95815 -0.3429,-37.93551 -1.7691,-56.84854 -0.9394,-11.849145 -2.3373,-23.768976 -5.9198,-35.147557 -2.9203,-9.138573 -7.6889,-17.881275 -14.8325,-24.400902 -7.198,-6.647352 -16.5929,-10.746905 -26.2999,-11.877614 -2.9195,-0.377123 -5.8657,-0.532224 -8.8087,-0.511381 z M 2641.0508,426.00977 c 154.6463,-0.0376 309.2935,0.73755 463.9297,2.52734 78.4744,0.91401 157.0649,2.10585 235.5756,3.64183 44.5278,0.87026 89.1984,1.86649 133.7784,3.00008 29.6298,0.74535 59.4093,1.57184 89.0985,2.46603 21.0973,0.62971 42.3164,1.3124 63.4665,2.03425 12.6611,0.43007 25.409,0.88466 38.1247,1.35264 14.7694,0.53913 29.6552,1.11725 44.4867,1.71497 16.8599,0.68177 33.8733,1.40466 50.7983,2.17119 2.8244,0.12707 5.5972,0.2486 8.3711,0.38009 16.0275,0.71118 32.0485,1.55562 48.0666,2.44655 3.8396,0.21034 7.6784,0.43495 11.5265,0.6537 0.8876,0.0572 2.0632,0.12288 3.0614,0.18333 14.999,0.87589 29.9931,1.83574 44.9777,2.9319 0.3348,0.0222 1.1973,0.0898 1.7344,0.12935 8.9569,0.66738 17.9095,1.39357 26.8554,2.19487 0.2821,0.0236 1.1609,0.10491 1.67,0.1543 1.3897,0.12715 3.1281,0.28965 4.2968,0.39437 1.5853,0.15305 3.1706,0.3061 4.7559,0.45914 0.3509,0.0394 1.1947,0.12048 1.7344,0.17584 1.0312,0.1035 2.0625,0.20699 3.0937,0.31049 0.3332,0.0313 1.1942,0.12427 1.7297,0.17921 1.0361,0.10823 2.0722,0.21646 3.1082,0.3247 0.2917,0.0361 1.1932,0.13097 1.7191,0.18966 2.6407,0.28279 5.279,0.58708 7.9176,0.88846 0.2904,0.0312 1.192,0.14126 1.7171,0.20276 10.7941,1.26893 21.5627,2.75823 32.2888,4.51209 0.083,0.019 1.1316,0.19076 1.571,0.26615 16.9498,2.85945 33.8178,6.4671 50.1807,11.78436 15.3957,5.0365 30.4452,11.74471 43.3821,21.6193 10.5701,8.05451 19.3906,18.31129 26.0766,29.77899 8.5297,14.49161 14.1197,30.49843 18.4573,46.68349 5.0824,19.14239 8.3821,38.70738 11.0536,58.31604 0.7996,5.94774 1.5282,11.90486 2.2025,17.86807 0.038,0.31658 0.1327,1.1932 0.1924,1.7246 0.626,5.5923 1.1954,11.19076 1.7451,16.79103 0.037,0.35957 0.1142,1.19529 0.1667,1.73721 0.9154,9.59064 1.7219,19.19126 2.4739,28.79599 0.026,0.31004 0.09,1.19708 0.1311,1.72853 2.2998,30.16498 3.9645,60.37369 5.5369,90.58397 0.064,1.2047 0.1346,2.66333 0.2012,3.96564 2.4725,48.75041 4.785,97.58633 6.9522,146.39262 2.0611,46.59628 4.0127,93.3325 5.8297,139.9912 0.2413,6.1368 0.4826,12.2735 0.7239,18.4103 0.073,1.9968 0.1584,4.197 0.2362,6.2721 1.2955,34.0194 2.5441,68.0405 3.7326,102.0638 1.7615,50.9656 3.4432,102.0701 4.9839,153.0952 0.1291,4.2202 0.2581,8.4405 0.3872,12.6607 1.5119,50.9878 2.95,102.1476 4.2646,153.2062 2.1331,82.6797 4.0046,165.494 5.6302,248.2367 2.0728,106.2744 3.7688,212.6585 5.0599,318.9846 0.1625,13.1178 0.3094,26.2358 0.4652,39.3538 0.6967,63.7762 1.2922,127.6896 1.7218,191.5206 0.7328,107.3328 1.0569,214.6683 0.9496,322.0036 -0.1221,118.7027 -0.7981,237.405 -2.1011,356.1008 -0.7454,65.7699 -1.6688,131.6909 -2.8606,197.5132 -0.1903,10.42 -0.3807,20.8401 -0.571,31.2602 -0.036,1.9979 -0.083,4.1992 -0.1227,6.2753 -1.0581,54.8617 -2.3389,109.7188 -3.7455,164.5726 -3.4081,134.0062 -6.8839,268.0271 -10.641,402.0355 -1.4173,50.7047 -2.9026,101.4074 -4.4303,152.1088 -1.4902,48.8413 -3.0527,97.8166 -4.7292,146.7042 -0.1434,4.2541 -0.2834,8.3766 -0.436,12.6312 -0.8163,23.33 -1.6498,46.6594 -2.5359,69.9868 -0.8853,23.316 -1.8144,46.7663 -2.7958,70.1308 -0.087,2.0964 -0.1739,4.1928 -0.2609,6.2892 -0.064,1.4134 -0.1336,3.0638 -0.1998,4.5683 -0.2694,6.2182 -0.5436,12.4362 -0.8158,18.6543 -0.3749,8.3829 -0.7632,16.9353 -1.1575,25.3825 -0.8751,18.8327 -1.8304,37.8083 -2.8363,56.6929 -0.3327,6.1735 -0.6796,12.5553 -1.0288,18.7626 -0.8788,15.5025 -1.8232,31.0011 -2.827,46.496 -0.028,0.3609 -0.081,1.198 -0.1191,1.7412 -0.3151,4.6748 -0.6303,9.3496 -0.9454,14.0244 -0.021,0.3282 -0.081,1.1726 -0.1211,1.6934 -0.1967,2.751 -0.398,5.6028 -0.5889,8.2571 -1.7229,23.6516 -3.6741,47.2893 -6.1435,70.8757 -0.033,0.3331 -0.1274,1.1939 -0.1839,1.7292 -0.2764,2.5726 -0.5503,5.1879 -0.8365,7.6759 -0.2541,2.2899 -0.5252,4.5778 -0.7901,6.8664 -0.04,0.3575 -0.1426,1.1922 -0.2065,1.7325 -1.8841,15.6277 -4.0338,31.2331 -6.9303,46.7086 -2.2931,11.8836 -4.8911,23.7555 -8.8853,35.1987 -2.3752,6.646 -5.2357,13.216 -9.5237,18.8722 -7.7127,10.6868 -16.5086,20.6185 -26.4503,29.2849 -14.1605,12.404 -30.5933,22.0189 -47.8777,29.3746 -0.8931,0.3882 -1.7949,0.7558 -2.6926,1.1332 0.036,-0.011 -1.0514,0.4288 -1.4455,0.5906 -0.5449,0.2244 -0.7316,0.2905 -1.4517,0.5795 -8.9889,3.5797 -18.1904,6.6074 -27.4896,9.2713 -0.086,0.028 -1.1048,0.312 -1.5345,0.4341 -3.3914,0.9531 -6.7975,1.854 -10.2155,2.7065 -0.3199,0.082 -1.1656,0.2877 -1.6871,0.417 -14.3584,3.5088 -28.8868,6.2932 -43.4867,8.585 -0.061,0.013 -1.1324,0.1739 -1.569,0.2418 -9.6802,1.4992 -19.3944,2.7708 -29.1224,3.9164 -0.2581,0.032 -1.192,0.1365 -1.7102,0.1964 -4.4944,0.5243 -9.3884,1.0299 -13.6432,1.4676 -1.6601,0.1618 -3.6683,0.3624 -5.1075,0.4996 -3.3967,0.322 -6.7946,0.6326 -10.1934,0.9321 -0.3264,0.031 -1.1962,0.1021 -1.731,0.1485 -28.1397,2.4206 -56.3526,3.8896 -84.5754,4.9027 -1.546,0.057 -3.0777,0.1174 -4.5406,0.1698 -8.4044,0.2935 -16.9452,0.5811 -25.4119,0.8589 -1.3431,0.046 -2.5952,0.086 -3.9876,0.1268 -5.231,0.1574 -10.5871,0.3219 -15.7398,0.4749 -16.4628,0.481 -32.9265,0.9288 -49.3906,1.3594 -1.4143,0.032 -3.0658,0.075 -4.5713,0.1111 -46.6659,1.1784 -93.3358,2.1845 -140.0069,3.133 -46.7853,0.9163 -93.7242,1.7976 -140.5703,2.6048 -102.6178,1.7829 -205.2396,3.331 -307.863,4.7523 -99.749,1.3821 -199.4999,2.6228 -299.2519,3.7636 -91.5243,1.0222 -183.1323,1.9882 -274.6913,2.8111 -111.7064,1.0081 -223.4146,1.8505 -335.1246,2.3448 -69.0802,0.2843 -138.1621,0.4933 -207.2425,0.1096 -9.6672,-0.06 -19.5024,-0.1443 -29.065,-0.2377 -9.6149,-0.1255 -19.2303,-0.2369 -28.8437,-0.4532 -0.3366,-0.012 -1.2003,-0.03 -1.7389,-0.045 -1.3305,-0.033 -2.6611,-0.066 -3.9916,-0.1 -0.2284,0 -1.1986,-0.036 -1.7132,-0.051 -1.3306,-0.041 -2.6612,-0.082 -3.9919,-0.1225 -0.1716,-0.011 -1.1964,-0.045 -1.6991,-0.065 -2.9537,-0.1266 -5.9241,-0.1776 -8.8634,-0.4447 -5.8123,-1.8396 -11.898,-2.539 -17.9199,-3.3276 -15.6562,-1.8872 -31.3861,-3.0666 -47.1082,-4.2444 -39.6178,-2.8464 -79.2871,-4.9134 -118.9626,-6.7578 -52.0004,-2.3737 -104.025,-4.1994 -156.06,-5.6194 -12.2002,-0.4435 -24.3995,-0.9128 -36.5977,-1.4102 -16.8215,-0.685 -33.8259,-1.463 -50.7142,-2.2659 -1.093,-0.049 -1.9573,-0.096 -3.0638,-0.1505 -5.6404,-0.2805 -11.2808,-0.5609 -16.9212,-0.8414 -0.4453,-0.019 -1.2655,-0.066 -1.8544,-0.096 -24.1484,-1.244 -48.2898,-2.6225 -72.423,-4.1327 -0.7452,-0.044 -1.7965,-0.1141 -2.6593,-0.1681 -2.9558,-0.1891 -5.8788,-0.3729 -8.7801,-0.565 -35.2257,-2.3031 -70.4358,-4.901 -105.5801,-8.2376 -0.2756,-0.031 -1.1942,-0.1187 -1.717,-0.1714 -15.209,-1.5123 -30.4212,-3.0831 -45.5375,-5.364 -3.6094,-0.5899 -7.2351,-1.1595 -10.7815,-2.0576 -12.7812,-4.9453 -25.0506,-11.2266 -36.5337,-18.7088 -16.9037,-11.0532 -32.2022,-24.7622 -44.2291,-41.038 -6.3101,-8.5836 -11.7215,-17.8836 -15.5845,-27.8271 -2.1961,-6.2157 -3.5153,-12.6957 -4.834,-19.1417 -3.0885,-15.6876 -5.206,-31.5462 -7.1665,-47.408 -3.7939,-31.4942 -6.5638,-63.1016 -9.0459,-94.7229 -3.5793,-46.3807 -6.4204,-92.8683 -8.9161,-139.3393 -2.04,-38.0217 -3.8409,-76.2579 -5.4885,-114.3766 -0.1027,-2.341 -0.1984,-4.502 -0.2943,-6.8412 -0.2981,-7.1557 -0.6062,-14.3279 -0.8937,-21.4353 -0.6213,-15.0738 -1.2109,-30.1489 -1.7902,-45.2243 -1.9341,-50.8242 -3.6469,-101.776 -5.204,-152.659 -1.2147,-40.3036 -2.3477,-80.7794 -3.3963,-121.1531 -1.6878,-65.7794 -3.1778,-131.7 -4.4874,-197.5405 -1.1251,-57.353 -2.1506,-114.8271 -3.0492,-172.23 -1.0077,-63.9524 -1.8723,-127.907 -2.6326,-191.8628 -1.055,-91.3373 -1.9013,-182.7962 -2.5181,-274.1835 -1.3907,-206.3523 -1.7253,-412.7117 -1.045,-619.0676 0.5039,-152.7746 1.5922,-305.5475 3.317,-458.3133 0.8743,-76.4965 1.9164,-153.1102 3.1529,-229.6476 0.7894,-48.8227 1.6675,-97.6439 2.6166,-146.4637 1.3406,-67.9438 2.8565,-136.0202 4.5945,-204.0073 1.1365,-44.6012 2.381,-89.3289 3.7306,-133.9759 0.9564,-31.7824 1.9893,-63.7011 3.0806,-95.5366 0.7277,-21.1887 1.491,-42.5122 2.2841,-63.7604 0.1557,-4.2474 0.3081,-8.3633 0.4735,-12.6112 0.7631,-20.1451 1.577,-40.3822 2.3992,-60.4661 0.3121,-7.4101 0.6273,-14.96609 0.9375,-22.28512 0.3249,-7.41081 0.6498,-14.82161 0.9746,-22.23242 1.0357,-23.21235 2.1121,-46.5926 3.2701,-69.86459 0.334,-6.84348 0.6842,-13.74204 1.0268,-20.62369 0.057,-1.02964 0.1221,-2.33024 0.1824,-3.464 0.4262,-8.20039 0.8635,-16.45058 1.2942,-24.67077 0.053,-0.88784 0.1135,-2.06369 0.1694,-3.06216 l 1.1196,-20.45346 c 0.032,-0.63722 0.091,-1.59771 0.1334,-2.35896 2.2264,-39.46839 4.6673,-78.9254 7.4897,-118.35589 0.059,-0.85295 0.1464,-1.99478 0.2165,-2.95869 0.1361,-1.8484 0.2723,-3.69681 0.4085,-5.54521 0.019,-0.18643 0.096,-1.19406 0.1374,-1.69859 0.9351,-11.79232 2.0494,-23.57107 3.4212,-35.32094 0.024,-0.22422 0.1424,-1.19056 0.2028,-1.70123 0.6601,-5.56418 1.387,-11.12031 2.1741,-16.66791 0.016,-0.0767 0.167,-1.13487 0.233,-1.57459 3.3655,-23.03157 7.8633,-45.97529 15.0254,-68.15268 5.0507,-15.4761 11.462,-30.62228 20.3393,-44.31662 7.6805,-11.89857 17.3635,-22.55576 28.7972,-30.94656 11.514,-8.53426 24.5505,-14.82238 38.0355,-19.56924 4.6353,-1.65528 9.3518,-3.0945 14.1751,-4.09266 10.3735,-2.20445 20.8875,-3.66786 31.3977,-5.04431 3.2545,-0.41118 6.5106,-0.80922 9.7683,-1.19397 0.2417,-0.0312 1.1917,-0.13649 1.7064,-0.19624 0.7847,-0.0895 1.5694,-0.17907 2.3542,-0.2686 0.2708,-0.0265 1.1698,-0.1247 1.6816,-0.1836 28.0671,-3.07868 56.2214,-5.28807 84.385,-7.26449 9.3491,-0.65327 18.868,-1.27726 28.1169,-1.8566 3.5593,-0.22014 7.2643,-0.44477 10.7325,-0.66211 7.8308,-0.47604 15.6634,-0.92118 23.4961,-1.36523 1.4125,-0.0814 3.062,-0.16927 4.5656,-0.25316 24.7012,-1.36916 49.4108,-2.57715 74.1238,-3.70973 1.205,-0.0572 2.664,-0.12003 3.9667,-0.17939 6.9654,-0.30346 14.0646,-0.6154 21.0821,-0.92218 1.0302,-0.0459 2.3314,-0.0975 3.4658,-0.14558 36.7998,-1.55686 73.7114,-2.93471 110.4581,-4.16887 20.6545,-0.69143 41.3102,-1.34566 61.9668,-1.9707 25.3634,-0.74672 50.8974,-1.46832 76.3286,-2.12846 50.9398,-1.32333 102.0149,-2.46984 153.0135,-3.49186 87.1254,-1.72109 174.4425,-3.06589 261.6504,-4.10008 157.1417,-1.84931 314.402,-2.7491 471.5778,-2.80499 z"
       sodipodi:nodetypes="scccccccsccccccccccccccccccccccccccccccccccccccccccccccccccccccccccccccccccccccccccccccccccccccccccccscccccccccccccccccccccccccccccccccccccccccccccccccccccccccccssscscccccscccccccccccccccccccccccccccccccccccccccccccccccsccccccscccccccccccccccccccccccsccccccccccccccccccccccscccccccccccccccccccccccccccccccccccccccccccccscscccccccccccccccccccccccccccccccccccccccccsccccccss" />
  </g>
</svg>
